PathFileType	3	(X/Y/Z)	E:\ViconData\BIOM9541 2025\Week 7\Wed1100\Hanif high squat 5 Squat 01.trc
DataRate	CameraRate	NumFrames	NumMarkers	Units	OrigDataRate	OrigDataStartFrame	OrigNumFrames
200.0	200.0	17	19	mm	200.0	544	1450	
Frame#	Time	C7			CLAV			RBAK			LASI			RASI			LPSI			RPSI			LTHI			LKNE			LTIB			LANK			LHEE			LTOE			RTHI			RKNE			RTIB			RANK			RHEE			RTOE			
		X1	Y1	Z1	X2	Y2	Z2	X3	Y3	Z3	X4	Y4	Z4	X5	Y5	Z5	X6	Y6	Z6	X7	Y7	Z7	X8	Y8	Z8	X9	Y9	Z9	X10	Y10	Z10	X11	Y11	Z11	X12	Y12	Z12	X13	Y13	Z13	X14	Y14	Z14	X15	Y15	Z15	X16	Y16	Z16	X17	Y17	Z17	X18	Y18	Z18	X19	Y19	Z19	
544	2.715	307.43637	1257.0425	-1213.3153	166.39822	1178.0728	-1206.9575	334.33093	1171.3365	-1359.0111	227.77144	813.18146	-1085.7717	224.8546	824.0376	-1344.8776	395.5478	879.8295	-1168.152	396.4312	876.6096	-1242.6373	196.03828	540.20685	-955.00165	163.08669	403.1738	-943.05688	243.9352	209.23196	-940.45483	301.72119	64.184532	-969.34796	327.47638	51.658905	-1028.7855	160.95229	37.91724	-950.26581	267.68341	694.04718	-1424.9801	181.08858	400.95074	-1476.5966	208.94737	316.15518	-1483.8361	298.25815	71.943367	-1435.6075	323.2692	50.254761	-1367.3916	162.53967	40.698986	-1461.5219	
545	2.72	307.39276	1254.4497	-1213.2738	165.92322	1175.6967	-1206.7927	334.52859	1168.8033	-1359.0093	228.56134	810.52826	-1085.8994	225.4653	821.5578	-1344.931	396.284	877.2156	-1168.2937	397.0942	874.2114	-1242.6638	195.4993	539.18121	-954.20721	161.35141	402.42911	-941.86517	243.21362	208.94882	-939.95239	301.66022	64.240448	-969.36902	327.46777	51.700329	-1028.8508	160.92455	37.95504	-950.21985	267.92337	692.62659	-1425.4146	179.23439	400.17468	-1477.8176	207.29097	315.52567	-1484.803	298.13809	71.922867	-1435.6929	323.25043	50.275295	-1367.4336	162.57129	40.714821	-1461.5544	
546	2.725	307.37665	1251.7452	-1213.2731	166.36955	1172.496	-1207.1606	334.6048	1166.0353	-1358.9532	229.252	807.9491	-1085.7412	226.0863	819.0626	-1344.9774	396.9537	874.4633	-1168.3558	397.4726	872.0087	-1242.2125	194.91158	538.13354	-953.39459	159.6013	401.75125	-940.66699	242.3374	208.74048	-939.30322	301.87921	64.415489	-969.28827	327.39417	51.663803	-1028.8036	160.96342	37.997837	-950.2467	268.16907	690.93024	-1425.6326	177.36003	399.3208	-1479.0051	205.69948	314.814	-1485.7961	298.00839	71.794456	-1435.7623	323.22913	50.264538	-1367.5208	162.62222	40.685482	-1461.6008	
547	2.73	307.28555	1248.939	-1213.2635	165.96779	1170.0004	-1207.1808	334.76428	1163.3417	-1358.9054	230.0152	805.30182	-1085.7366	226.4952	816.701	-1345.4547	397.7053	871.8238	-1168.808	398.4987	869.0474	-1242.9406	194.25578	537.04388	-952.60388	157.81172	401.03836	-939.46472	241.54326	208.33679	-938.8219	301.6246	64.267014	-969.37195	327.48236	51.7869	-1028.8458	161.00322	38.00988	-950.19354	268.36728	689.06177	-1425.4941	175.48148	398.42404	-1480.1431	204.06819	314.10907	-1486.7273	297.85251	71.742897	-1435.787	323.20395	50.275379	-1367.5613	162.67252	40.661133	-1461.6248	
548	2.735	307.27533	1246.1705	-1213.3331	166.26152	1167.0591	-1207.3995	334.88257	1160.5061	-1358.9248	230.78946	802.62573	-1085.818	227.2073	813.8677	-1344.9603	398.3696	869.1636	-1168.9379	399.0052	866.3874	-1242.9523	193.63496	536.01428	-951.93713	155.96475	400.34158	-938.24664	240.75633	208.07268	-938.25702	301.77002	64.448227	-969.24097	327.33716	51.772327	-1028.7257	161.02034	38.014687	-950.159	268.55466	687.39642	-1425.7094	173.58453	397.65475	-1481.3079	202.37775	313.47156	-1487.5995	297.63504	71.754616	-1435.8044	323.0575	50.324764	-1367.4103	162.66872	40.688663	-1461.64	
549	2.74	307.22116	1243.2987	-1213.3785	166.52988	1163.7849	-1207.8209	334.94281	1157.6063	-1358.8654	231.55624	799.78674	-1085.8079	227.5424	811.6083	-1345.4343	398.9918	866.4258	-1168.7072	399.3664	864.0493	-1242.6219	193.3035	534.75854	-951.98969	154.10098	399.53659	-937.14648	239.90002	207.70453	-937.67279	301.45044	64.302399	-969.23621	327.40988	51.925713	-1028.7439	161.0423	38.013329	-950.13409	268.70697	685.76257	-1425.8365	171.68375	396.85211	-1482.3586	200.68219	312.81424	-1488.4395	297.43973	71.814095	-1435.8427	322.91226	50.382584	-1367.291	162.67722	40.753632	-1461.6525	
550	2.745	307.16083	1240.4536	-1213.3445	166.25349	1161.2965	-1207.8091	335.08582	1154.7573	-1358.8925	232.31438	797.03278	-1085.6907	228.3195	808.6937	-1344.9028	399.6243	863.7969	-1168.6599	400.1778	860.7909	-1243.1824	192.20471	533.69971	-950.71063	152.3524	398.70853	-936.12512	238.97464	207.27809	-937.16827	301.33255	64.302727	-969.14557	327.4259	51.999599	-1028.7007	161.04668	37.998421	-950.08551	268.84369	684.09735	-1426.0684	169.77658	396.05307	-1483.436	199.03528	312.16968	-1489.3098	297.25006	71.911568	-1435.8353	322.83044	50.500904	-1367.1798	162.69679	40.809288	-1461.7117	
551	2.75	307.12729	1237.5839	-1213.3308	166.57753	1157.7491	-1208.1073	335.16388	1151.7963	-1358.8502	233.11043	794.24445	-1085.7125	228.8243	805.9739	-1344.8767	400.3043	861.0062	-1168.8325	400.4977	858.5918	-1242.7418	191.53123	532.67725	-950.14404	150.58623	397.94806	-935.10413	238.06529	206.94237	-936.58862	301.23135	64.277733	-969.091	327.4136	52.010975	-1028.6776	161.07265	37.976418	-950.08514	269.01297	682.35883	-1426.3004	167.94283	395.22607	-1484.5558	197.37463	311.44473	-1490.2183	297.06937	71.864166	-1435.8639	322.76395	50.543098	-1367.1575	162.72189	40.767025	-1461.7025	
552	2.755	307.02283	1234.6719	-1213.2456	166.37692	1155.3022	-1208.2592	335.30026	1148.9298	-1358.8092	233.79002	791.33228	-1085.6704	229.3096	803.2319	-1344.7594	401.0231	858.1408	-1169.1705	401.4518	855.5144	-1243.4342	190.86105	531.63202	-949.5827	148.88963	397.17563	-934.10052	237.17836	206.48885	-936.18054	301.18726	64.243187	-969.09857	327.35333	51.955242	-1028.6104	161.09544	37.988678	-950.11108	269.11481	680.58929	-1426.5312	166.13708	394.24435	-1485.6102	195.77412	310.61041	-1491.052	296.93625	71.709381	-1435.9186	322.70404	50.523746	-1367.2437	162.76266	40.709705	-1461.7393	
553	2.76	306.97754	1231.853	-1213.2279	166.51822	1151.751	-1208.208	335.38345	1146.0095	-1358.7134	234.50848	788.50226	-1085.4894	229.8369	800.4714	-1344.7253	401.7144	855.2609	-1169.4189	401.7282	853.1028	-1242.9835	190.5955	530.46289	-949.65363	147.22856	396.50012	-933.00537	236.3219	206.08549	-935.75067	301.08374	64.267639	-969.05719	327.28983	51.917366	-1028.5977	161.088	38.028114	-950.11346	269.14279	679.10828	-1427.1388	164.3101	393.27554	-1486.6617	194.18312	309.83362	-1491.8806	296.75531	71.586586	-1435.953	322.64462	50.530258	-1367.2544	162.75191	40.700954	-1461.793	
554	2.765	306.85632	1229.0063	-1213.1431	166.50542	1148.8186	-1208.3573	335.46719	1143.12	-1358.6621	235.33325	785.58472	-1085.4907	230.2927	797.7614	-1344.6348	402.3986	852.4185	-1169.4609	402.5235	850.276	-1243.3933	189.54472	529.34949	-948.4408	145.63959	395.67798	-932.02185	235.48575	205.65968	-935.38318	301.46014	64.956047	-969.23065	327.9975	52.489479	-1028.8989	161.09012	38.037682	-950.10071	269.20218	677.37781	-1427.3778	162.54712	392.46069	-1487.7522	192.62138	309.12851	-1492.6782	296.5932	71.623299	-1435.9935	322.54568	50.596428	-1367.1858	162.74606	40.761414	-1461.856	
555	2.77	306.76712	1226.2076	-1213.1243	166.49532	1145.8474	-1208.3933	335.55832	1140.2191	-1358.5602	236.08949	782.57159	-1085.5935	230.7918	795.063	-1344.5596	403.0441	849.6884	-1169.4031	403.2599	847.2742	-1243.7531	188.90952	528.1167	-947.84973	144.06236	394.84775	-931.05939	234.60519	205.17279	-934.96832	300.82257	64.32872	-968.99323	327.23376	52.093052	-1028.6471	161.08423	38.052925	-950.08374	269.38107	675.26123	-1427.3602	160.8687	391.65173	-1488.8152	191.16475	308.43799	-1493.5109	296.42709	71.702644	-1436.0378	322.46472	50.721989	-1367.0698	162.75757	40.88509	-1461.9215	
556	2.775	306.65723	1223.3522	-1213.0613	166.49165	1142.7372	-1208.5686	335.57776	1137.3674	-1358.5167	236.78989	779.63922	-1085.4094	231.3318	792.2288	-1344.463	403.6475	846.8624	-1169.3162	403.572	844.665	-1243.4661	188.28697	526.89581	-947.32568	142.4882	394.00613	-930.138	233.81281	204.68111	-934.63458	301.25882	65.009407	-969.20007	327.88443	52.64616	-1028.9076	161.0977	38.058258	-950.10779	269.48941	673.39539	-1427.608	159.21103	390.72821	-1489.8086	189.84862	307.74136	-1494.3754	296.16193	71.575508	-1435.9606	322.63922	51.128342	-1367.0044	162.77536	40.936005	-1461.9497	
557	2.78	306.60202	1220.5089	-1213.084	166.50826	1139.7426	-1208.7094	335.65576	1134.5294	-1358.4686	237.53484	776.68787	-1085.3822	231.6454	789.6955	-1344.9324	404.3158	844.1009	-1169.6577	404.44	841.5392	-1244.0751	187.63882	525.74878	-946.75226	140.92729	393.18295	-929.24042	232.98642	204.34544	-934.17365	301.15735	64.941887	-969.21313	327.38873	52.362133	-1028.8392	161.13272	38.063881	-950.14771	269.62112	671.48853	-1427.9042	157.68082	389.7374	-1490.8448	188.52061	306.93457	-1495.1261	296.08981	71.514542	-1435.9728	322.60492	51.178654	-1367.0363	162.84636	40.878365	-1461.95	
558	2.785	306.53702	1217.6417	-1213.0624	166.16103	1137.0367	-1208.6073	335.65057	1131.6498	-1358.4015	238.23712	773.80029	-1085.3928	232.3899	786.4887	-1344.4176	404.9329	841.1578	-1169.8336	404.7792	839.2646	-1243.6932	187.45871	524.5155	-946.9541	139.39743	392.35815	-928.38696	232.2332	203.90141	-933.86945	301.08237	64.977242	-969.22296	328.25751	52.938923	-1029.1622	161.18936	38.037121	-950.17322	269.73517	669.56732	-1428.2003	156.13243	388.74185	-1491.8553	187.26726	306.15421	-1495.9249	295.97787	71.419518	-1436.0125	322.57639	51.228462	-1367.0623	162.8759	40.817242	-1461.9806	
559	2.79	306.40308	1214.7107	-1213.0094	165.80067	1133.838	-1208.3362	335.61227	1128.7137	-1358.3883	238.92929	770.82733	-1085.3557	232.8944	783.5626	-1344.4067	405.5748	838.3762	-1170.198	405.2706	836.4562	-1243.7063	186.38701	523.27374	-945.75238	137.88803	391.52493	-927.52637	231.41713	203.51248	-933.42645	301.01984	64.948921	-969.22681	327.74844	52.539989	-1028.8663	161.15105	38.018124	-950.1637	269.85208	667.65106	-1428.4312	154.56143	387.76416	-1492.822	185.97017	305.39926	-1496.7057	295.80609	71.394745	-1436.0254	322.49222	51.308857	-1367.1356	162.87634	40.797714	-1461.9908	
560	2.795	306.32999	1211.8251	-1213.0103	166.3443	1130.5542	-1208.9867	335.68216	1125.9736	-1358.4642	239.64815	767.80768	-1085.4082	233.14	781.0071	-1344.915	406.1259	835.5383	-1170.1536	405.8297	833.5685	-1243.9545	185.71602	522.09717	-945.27338	136.41135	390.70154	-926.67126	230.76155	203.14252	-933.08783	300.85486	64.951775	-969.15619	327.70441	52.650463	-1028.8702	161.10486	38.006741	-950.11914	269.9436	665.71741	-1428.6659	153.04056	386.83463	-1493.7888	184.76106	304.71054	-1497.4689	295.59515	71.394775	-1436.0233	322.35443	51.362431	-1366.9553	162.82689	40.831684	-1462.0131	
